<svg xmlns="http://www.w3.org/2000/svg" width="353.283" height="100" viewBox="0 0 353.283 100"><defs><style>.a{fill:#0070e0;fill-rule:evenodd;}</style></defs><path class="a" d="M126.627,172.31V139.566h4.216V145.1c2.275-3.137,6.034-6.416,10.652-6.416s8.494,1.707,10.874,7.743c4.329-7.358,9.244-7.743,11.983-7.743s11.1.842,11.1,14.6V172.31h-4.438V152.4c0-4.6-1.066-9.513-7.323-9.513s-10.652,4.017-10.652,15.265V172.31h-4.216V153.283c0-3.265-.19-10.619-7.323-10.619s-10.652,5.777-10.652,14.159V172.31Zm57.476,0V139.345h4.438v5.973c2.359-3.454,5.713-6.637,11.983-6.637s12.2,3.259,12.2,17.036V172.31h-4.217V154.168c0-4.155-.5-11.5-8.21-11.5S188.54,148.517,188.54,156.6V172.31Zm36.833-32.966h4.445V172.3h-4.445Zm2.33-13.271a3.428,3.428,0,1,1-3.433,3.428A3.428,3.428,0,0,1,223.266,126.072Zm39.171,22.344c-1.78-2.946-6.032-5.752-11.54-5.752s-14.2,2.915-14.2,13.5,9.246,12.832,13.979,12.832a14.357,14.357,0,0,0,11.762-5.531c1.957,1.192,3.328,2.212,3.328,2.212-4.047,5.18-8.52,7.3-14.869,7.3s-18.418-3.742-18.418-17.256,12.4-17.036,18.2-17.036,12.936,2.709,15.09,7.743a38.2,38.2,0,0,0-3.328,1.991Zm26.852-9.735a15.741,15.741,0,0,1,12.871,6.637v-5.752h4.216v32.522h-4.216v-5.531a15.705,15.705,0,0,1-12.871,6.417A17.065,17.065,0,0,1,272.2,155.718C272.2,145.352,281.032,138.681,289.289,138.681Zm.221,3.982c5.129,0,12.871,3.568,12.871,13.5s-8.463,12.832-13.092,12.832-12.649-3.136-12.649-13.053,8.188-13.274,12.871-13.274Zm39.944,3.1,2.664-2.655a11.673,11.673,0,0,0-8.878-4.425c-2.328,0-9.1,1.056-9.1,8.628,0,10.316,13.979,8.712,13.979,16.593,0,3.14-3.114,5.089-5.769,5.089s-4.546-1.026-6.878-3.54c-.948,1.04-2.886,2.876-2.886,2.876a12.771,12.771,0,0,0,9.764,4.646,9.543,9.543,0,0,0,9.987-9.513c0-10.1-14.424-9.573-14.424-16.372,0-3.068,2.786-4.646,5.1-4.646a9.154,9.154,0,0,1,6.435,3.319Zm25.743-7.08a15.741,15.741,0,0,1,12.871,6.637v-5.752h4.216v32.522h-4.216v-5.531a15.705,15.705,0,0,1-12.871,6.417,17.065,17.065,0,0,1-17.088-17.256C338.109,145.352,346.94,138.681,355.2,138.681Zm.221,3.982c5.129,0,12.871,3.568,12.871,13.5s-8.463,12.832-13.092,12.832-12.649-3.136-12.649-13.053S350.735,142.664,355.418,142.664ZM69.154,117A50,50,0,1,1,19,167,50.077,50.077,0,0,1,69.154,117Zm.1,6.2A43.911,43.911,0,1,1,25.2,167.113,43.982,43.982,0,0,1,69.257,123.2Zm-.12,11.276,32.418,30.309h-9.98l-.007,18.584H83.134l-.022-18.584H55.163l.007,18.584H46.737l-.006-18.584H36.75Zm-20.4,25.885H89.57L69.152,141.335ZM36.306,186.689a48.734,48.734,0,0,0,32.846,12.389c15.62,0,28.83-8.659,32.18-12.389a4.6,4.6,0,0,0-3.773-3.982C92.249,188.2,81.9,193.99,69.152,193.99c-11.088,0-18.987-2.742-29.3-11.283A4.276,4.276,0,0,0,36.306,186.689Zm233.011,1.823v-8.34H270.4v1.409a3.6,3.6,0,0,1,2.743-1.634,2.742,2.742,0,0,1,2.8,1.972,3.329,3.329,0,0,1,3.084-1.972c.705,0,2.857.214,2.857,3.719v4.846h-1.143v-5.072c0-1.172-.276-2.423-1.886-2.423s-2.743,1.023-2.743,3.888v3.607H275.03v-4.846c0-.832-.049-2.705-1.886-2.705s-2.743,1.472-2.743,3.607v3.945h-1.084Zm90.317,0v-8.34h1.086v1.409a3.6,3.6,0,0,1,2.741-1.634,2.743,2.743,0,0,1,2.8,1.972,3.332,3.332,0,0,1,3.086-1.972c.705,0,2.855.214,2.855,3.719v4.846H371.06v-5.072c0-1.172-.274-2.423-1.886-2.423s-2.741,1.023-2.741,3.888v3.607h-1.086v-4.846c0-.832-.049-2.705-1.886-2.705s-2.741,1.472-2.741,3.607v3.945Zm-75.522,0v-8.4h1.143v1.522a3.5,3.5,0,0,1,3.086-1.691c1.615,0,3.143.83,3.143,4.339v4.226H290.4v-4.621c0-1.059-.128-2.93-2.114-2.93s-3.028,1.491-3.028,3.55v4h-1.143Zm9.493-8.4h1.143v8.4h-1.143v-8.4Zm.591-3.379a.869.869,0,1,1-.886.869.869.869,0,0,1,.886-.869Zm10.084,5.69a3.5,3.5,0,0,0-2.972-1.465,3.382,3.382,0,0,0-3.657,3.438c0,2.7,2.381,3.268,3.6,3.268a3.713,3.713,0,0,0,3.028-1.409c.5.3.856.563.856.563a4.446,4.446,0,0,1-3.827,1.86c-1.634,0-4.741-.953-4.741-4.4s3.191-4.339,4.685-4.339,3.33.69,3.884,1.972a9.89,9.89,0,0,0-.855.508Zm6.912-2.48a4.071,4.071,0,0,1,3.315,1.691v-1.465h1.084v8.284h-1.084v-1.409a4.056,4.056,0,0,1-3.315,1.634,4.367,4.367,0,1,1,0-8.735Zm.058,1.014a3.277,3.277,0,0,1,3.313,3.438,3.234,3.234,0,0,1-3.372,3.268,3.2,3.2,0,0,1-3.255-3.325A3.288,3.288,0,0,1,311.251,180.961Zm10.283.789.685-.675a3.014,3.014,0,0,0-2.285-1.127,2.178,2.178,0,0,0-2.341,2.2c0,2.627,3.6,2.219,3.6,4.226a1.428,1.428,0,0,1-1.484,1.3,2.268,2.268,0,0,1-1.771-.9c-.244.265-.743.732-.743.732a3.3,3.3,0,0,0,2.514,1.184,2.444,2.444,0,0,0,2.57-2.423c0-2.572-3.713-2.439-3.713-4.17a1.246,1.246,0,0,1,1.313-1.183,2.365,2.365,0,0,1,1.657.844Zm6.627-1.8a4.071,4.071,0,0,1,3.315,1.691v-1.465h1.084v8.284h-1.084v-1.409a4.056,4.056,0,0,1-3.315,1.634,4.367,4.367,0,1,1,0-8.735Zm.058,1.014a3.277,3.277,0,0,1,3.313,3.438,3.234,3.234,0,0,1-3.372,3.268,3.2,3.2,0,0,1-3.255-3.325A3.288,3.288,0,0,1,328.219,180.961Zm18.225,1.465a3.5,3.5,0,0,0-2.972-1.465,3.382,3.382,0,0,0-3.657,3.438c0,2.7,2.381,3.268,3.6,3.268a3.713,3.713,0,0,0,3.028-1.409c.5.3.856.563.856.563a4.446,4.446,0,0,1-3.827,1.86c-1.634,0-4.741-.953-4.741-4.4s3.191-4.339,4.685-4.339,3.33.69,3.884,1.972a9.878,9.878,0,0,0-.856.508ZM263.1,179.833a4.537,4.537,0,1,1-4.435,4.536A4.486,4.486,0,0,1,263.1,179.833Zm0,.889a3.541,3.541,0,1,1-3.332,3.535,3.438,3.438,0,0,1,3.332-3.535Zm90.319-.889a4.537,4.537,0,1,1-4.441,4.536A4.489,4.489,0,0,1,353.422,179.833Zm-.006.889a3.542,3.542,0,1,1-3.33,3.535,3.438,3.438,0,0,1,3.33-3.535ZM256.006,186.7a1.1,1.1,0,1,1-1.109,1.1,1.1,1.1,0,0,1,1.109-1.1Zm79.889,0a1.1,1.1,0,1,1-1.109,1.1,1.1,1.1,0,0,1,1.109-1.1Zm-121.613-6.644,3.552,8.628,2.886-5.974,2.662,5.974,3.773-8.628h-1.111l-2.662,6.195-2.662-6.195-2.886,6.195-2.441-6.195Zm13.094,0,3.55,8.628,2.886-5.974,2.662,5.974,3.773-8.628h-1.109l-2.664,6.195-2.662-6.195-2.886,6.195-2.441-6.195Zm13.092,0,3.552,8.628,2.884-5.974,2.664,5.974,3.773-8.628h-1.111l-2.662,6.195-2.664-6.195-2.884,6.195-2.441-6.195Z" transform="translate(-19 -117)"/></svg>